<?xml version="1.0" encoding="UTF-8" standalone="no"?>
<!-- Created with Inkscape (http://www.inkscape.org/) -->

<svg
   width="113mm"
   height="123mm"
   viewBox="0 0 113 123"
   version="1.1"
   id="svg985"
   xml:space="preserve"
   inkscape:version="1.2.2 (732a01da63, 2022-12-09)"
   sodipodi:docname="Leaf_v3.svg"
   xmlns:inkscape="http://www.inkscape.org/namespaces/inkscape"
   xmlns:sodipodi="http://sodipodi.sourceforge.net/DTD/sodipodi-0.dtd"
   xmlns="http://www.w3.org/2000/svg"
   xmlns:svg="http://www.w3.org/2000/svg"><sodipodi:namedview
     id="namedview987"
     pagecolor="#ffffff"
     bordercolor="#000000"
     borderopacity="0.25"
     inkscape:showpageshadow="2"
     inkscape:pageopacity="0.0"
     inkscape:pagecheckerboard="0"
     inkscape:deskcolor="#d1d1d1"
     inkscape:document-units="mm"
     showgrid="false"
     inkscape:zoom="1.4770342"
     inkscape:cx="238.99243"
     inkscape:cy="275.55218"
     inkscape:window-width="1920"
     inkscape:window-height="1009"
     inkscape:window-x="-8"
     inkscape:window-y="-8"
     inkscape:window-maximized="1"
     inkscape:current-layer="layer1" /><defs
     id="defs982" /><g
     inkscape:label="Calque 1"
     inkscape:groupmode="layer"
     id="layer1"><path
       style="display:inline;fill:#000000;stroke-width:0.13726"
       d="m 51.291932,120.72751 c -0.146273,-0.17625 -0.04581,-0.33102 0.645927,-0.99514 0.450528,-0.43254 1.013199,-0.94085 1.250382,-1.12958 0.237182,-0.18873 0.433088,-0.41079 0.435346,-0.49345 0.0023,-0.0827 0.136161,-0.26797 0.297561,-0.41178 0.161402,-0.14381 0.714953,-0.80496 1.230115,-1.46922 0.595436,-0.76777 1.287329,-1.91785 1.899249,-3.15699 0.670034,-1.35682 1.065119,-2.36641 1.299944,-3.32184 0.185546,-0.75493 0.404758,-1.86634 0.487138,-2.4698 0.08238,-0.60345 0.149782,-2.29333 0.149782,-3.75527 0,-1.46194 -0.06751,-3.46977 -0.150028,-4.461839 -0.08251,-0.992073 -0.36519,-3.440596 -0.628167,-5.441163 -0.262977,-2.000567 -0.564014,-4.3786 -0.668975,-5.284517 -0.104958,-0.905917 -0.265078,-2.49642 -0.35582,-3.53445 -0.09074,-1.03803 -0.189826,-1.887328 -0.220184,-1.887328 -0.03036,0 -0.189895,-3.077237 -0.741559,-2.774466 -0.551665,0.302772 -4.393461,1.35459 -4.51219,1.485905 -8.445779,1.936709 -10.574901,7.583021 -19.150386,6.518598 -1.515053,-0.189966 -6.79276,-0.975804 -8.717835,-1.308432 C 21.917158,86.50412 18.767037,85.89062 16.841963,85.473414 14.916889,85.056209 12.790383,84.58587 12.116393,84.42822 11.442404,84.270569 10.145295,84.022958 9.2339288,83.877973 8.3225637,83.732989 6.6213788,83.546411 5.4535184,83.463357 4.2856579,83.380302 3.307034,83.289246 3.2787995,83.261012 c -0.028236,-0.02824 0.1551974,-0.109968 0.4076299,-0.181628 0.252431,-0.07166 1.6943081,-0.62656 3.2041702,-1.23311 1.509862,-0.60655 3.7334774,-1.546891 4.9413664,-2.089647 1.20789,-0.542755 2.628533,-1.188474 3.156985,-1.434929 0.528451,-0.246456 2.173862,-1.012348 3.656467,-1.701983 1.482606,-0.689635 2.755943,-1.253882 2.829638,-1.253882 0.0737,0 0.2843,-0.118232 0.468009,-0.262738 0.183709,-0.144504 2.091377,-1.104678 4.239261,-2.133716 2.147885,-1.029038 4.013337,-1.998573 4.14545,-2.154522 0.132113,-0.155949 0.240206,-0.338468 0.240206,-0.405596 0,-0.06713 -0.0979,-0.122055 -0.217559,-0.122055 -0.119657,0 -1.262348,-1.040975 -2.539314,-2.313278 -1.276964,-1.272304 -2.321754,-2.414995 -2.321754,-2.539314 0,-0.124319 -0.05567,-0.226034 -0.123702,-0.226034 -0.06804,0 -0.243885,-0.200743 -0.390774,-0.446096 -0.146889,-0.245353 -0.700956,-1.157286 -1.231258,-2.026519 -0.530304,-0.869233 -1.475273,-2.50336 -2.099933,-3.631393 -0.624661,-1.128033 -1.504356,-2.825759 -1.95488,-3.772723 -0.450522,-0.946965 -1.43665,-3.018864 -2.191396,-4.604219 -0.754746,-1.585355 -1.712049,-3.623669 -2.127339,-4.529586 -0.415291,-0.905917 -1.337792,-2.944231 -2.050002,-4.529586 -0.71221,-1.585355 -1.736985,-3.709082 -2.277278,-4.719393 C 10.5025,35.938755 9.5905129,34.394578 9.0161559,33.517561 8.4417989,32.640544 7.4973047,31.35371 6.9172802,30.657932 6.3372557,29.962153 5.9704361,29.432199 6.1021249,29.480258 c 0.1316888,0.04806 0.7188124,0.370264 1.3047198,0.716013 0.5859061,0.345747 1.3922603,0.813933 1.7918974,1.040413 0.3996372,0.226479 1.5026329,0.829054 2.4510989,1.339055 0.948468,0.51 3.106933,1.601254 4.79659,2.425009 1.689658,0.823753 3.998612,1.912387 5.131008,2.419184 1.132397,0.506798 3.294245,1.476398 4.804107,2.154667 1.509862,0.67827 3.791721,1.6932 5.070797,2.255403 1.279077,0.562201 2.643525,1.17259 3.032105,1.356417 0.388581,0.183829 0.917125,0.411627 1.174541,0.506217 0.257417,0.09459 1.023934,0.474819 1.703372,0.844949 0.679438,0.370131 1.976546,1.108102 2.882464,1.639936 0.905917,0.531834 2.011859,1.201831 2.457649,1.488883 0.524599,0.337799 0.971875,0.521913 1.267905,0.521913 0.45738,0 0.45738,0 0.374307,-0.995137 -0.06277,-0.751965 0.0059,-1.515019 0.281117,-3.122669 0.200304,-1.170143 0.617428,-3.177573 0.92694,-4.460956 0.309514,-1.283383 0.672841,-2.82756 0.807396,-3.431505 0.134554,-0.603945 0.370618,-1.4378 0.524587,-1.853012 0.153967,-0.415212 0.719689,-2.268225 1.257159,-4.117806 0.53747,-1.849581 1.416315,-4.567332 1.95299,-6.039448 0.536675,-1.472115 1.141196,-3.17071 1.343382,-3.774655 0.202186,-0.603945 0.739136,-1.87017 1.193223,-2.813834 0.454089,-0.943664 0.995806,-2.194447 1.20382,-2.779519 0.208012,-0.585071 0.431699,-1.063766 0.49708,-1.063766 0.06538,0 0.118874,-0.102133 0.118874,-0.226961 0,-0.124829 0.146025,-0.541756 0.324501,-0.926506 0.178475,-0.38475 0.678901,-1.677398 1.112057,-2.8725513 0.433156,-1.1951533 0.963627,-2.8238909 1.178824,-3.6194188 0.215196,-0.7955275 0.420088,-1.4752347 0.455313,-1.5104604 0.03523,-0.035226 0.126818,0.05324 0.203537,0.1965905 0.07672,0.1433506 0.295783,0.874404 0.486811,1.6245633 0.191028,0.7501584 0.653625,2.2904319 1.027994,3.4228284 0.37437,1.1323963 1.029815,2.9545253 1.456544,4.0491753 0.42673,1.09465 0.969697,2.522022 1.206594,3.171938 0.430721,1.181663 0.430721,1.181663 0.07982,1.853012 -0.192996,0.369241 -1.148233,1.99934 -2.12275,3.622442 -1.771848,2.951094 -1.771848,2.951094 -1.867896,-3.706025 -0.05282,-3.661416 -0.136456,-7.5373 -0.185843,-8.613077 -0.06491,-1.4138291 -0.136856,-1.9559574 -0.259579,-1.9559574 -0.127239,0 -0.192458,0.7824338 -0.260288,3.1226694 -0.04978,1.717468 -0.09091,14.254535 -0.09139,27.860148 -8.23e-4,24.73748 -8.23e-4,24.73748 -0.340836,28.275599 -0.186972,1.945965 -0.387359,4.155789 -0.445307,4.91072 -0.05794,0.754931 -0.05984,1.828409 -0.0042,2.385505 0.05562,0.557097 0.232311,1.499045 0.392635,2.093218 0.160326,0.594174 0.319679,1.080315 0.354118,1.080315 0.03444,0 0.182091,-0.06394 0.328114,-0.142089 0.146022,-0.07815 0.218392,-0.267023 0.265496,-0.401978 0.05542,-0.15877 0.132509,-0.277609 0.18892,-0.448805 0.04599,-0.139564 0.151033,-0.447646 0.229194,-0.7753 0.07874,-0.330083 0.177001,-1.749107 0.218328,-3.112161 0.05004,-1.6504 0.0021,-3.461567 -0.143521,-5.421777 -0.120255,-1.618924 -0.218594,-3.236892 -0.218522,-3.595484 7.1e-5,-0.358592 0.05776,-0.560327 0.08841,-0.625396 0.04733,-0.100484 0.05814,-0.134482 0.100874,-0.182904 0.05675,-0.06431 0.347877,-0.458618 0.668723,-0.852049 0.320846,-0.39343 1.015253,-1.22312 1.543127,-1.843755 0.527875,-0.620635 1.053162,-1.128427 1.167304,-1.128427 0.114143,0 1.123487,0.564289 2.242986,1.253975 1.119499,0.689685 2.068592,1.34033 2.109093,1.445876 0.0405,0.105548 -0.126882,0.730275 -0.371966,1.388286 -0.245082,0.658008 -0.750687,1.968468 -1.123562,2.912132 -0.372877,0.943664 -0.950514,2.117239 -1.283638,2.607944 -0.333124,0.490705 -0.818505,1.122125 -1.078625,1.403156 -0.734887,0.857807 -1.303453,1.944663 -1.840087,2.755163 -0.362975,0.543915 -0.818696,1.26689 -1.012714,1.606609 -0.194018,0.339719 -0.506313,1.05004 -0.693986,1.578492 -0.187674,0.528451 -0.384859,1.200726 -0.438188,1.493944 -0.08324,0.457691 -0.06543,0.52102 0.12591,0.447597 0.122581,-0.04704 0.760044,-0.498756 1.416589,-1.003815 0.656543,-0.50506 1.687851,-1.470327 2.291796,-2.145038 0.603945,-0.674711 1.329708,-1.476669 1.612807,-1.782127 0.692288,-0.898472 1.48679,-1.704228 2.169407,-2.543127 0.385993,-0.476146 0.785695,-0.846748 0.888227,-0.823561 0.102532,0.02319 0.715014,0.865719 1.361071,1.872295 0.646056,1.006575 1.174648,1.884582 1.174648,1.951129 0,0.06654 -0.108093,0.17818 -0.240206,0.248077 -0.132113,0.0699 -1.629964,0.507012 -3.328559,0.971363 -2.162843,0.591266 -3.308955,0.976249 -3.824481,1.284659 -0.404869,0.242212 -1.008301,0.678319 -1.340959,0.969128 -0.332658,0.290809 -0.670402,0.65126 -0.750541,0.801001 -0.08014,0.149743 -0.116197,0.301771 -0.08013,0.337842 0.03607,0.03607 1.106556,-0.06602 2.378859,-0.226872 1.272302,-0.16085 2.591228,-0.353692 2.930947,-0.42854 0.339719,-0.07485 1.067024,-0.435051 1.670969,-0.704664 0.603945,-0.269615 1.213124,-0.572828 1.326364,-0.666967 0.826727,-0.532604 1.410871,-0.781848 2.141071,-1.081776 0.104706,0 0.210161,0.239101 0.25729,0.583356 0.04392,0.320846 0.122183,1.144563 0.173911,1.830484 0.09405,1.247128 0.09405,1.247128 -4.064108,1.338287 -2.286988,0.05014 -4.951069,0.09116 -5.920181,0.09116 -1.324896,0 -1.762024,0.04287 -1.762024,0.172823 0,0.103904 0.436346,0.270897 1.094176,0.418754 0.601798,0.135263 2.09965,0.327092 3.32856,0.426289 2.234383,0.180358 2.234383,0.180358 5.116846,3.078013 1.940449,1.950674 2.77032,2.868987 2.539314,2.809938 -0.188733,-0.04824 -1.053472,-0.348233 -1.921643,-0.666644 -0.86817,-0.318412 -1.949094,-0.683955 -2.402053,-0.812321 -0.727983,-0.206304 -1.013042,-0.407253 -2.456245,-1.731498 -1.107364,-1.016088 -1.902312,-1.625371 -2.470683,-1.893638 -0.460901,-0.217542 -1.326358,-0.496368 -1.923239,-0.619617 -0.596882,-0.123247 -1.111014,-0.198311 -1.142517,-0.166807 -0.46358,-0.07685 -0.855109,0.120341 -0.859287,1.146556 6.87e-4,0.358593 0.06379,1.825561 0.140139,3.25993 0.07636,1.434369 0.319101,3.997703 0.539436,5.696298 0.220336,1.698594 0.556381,4.107511 0.746767,5.353147 0.190387,1.245636 0.438014,3.160416 0.55028,4.255065 0.112268,1.094652 0.245917,2.793242 0.297,3.774652 0.05628,1.08127 0.0289,2.46045 -0.06949,3.50014 -0.0893,0.94366 -0.283121,2.31607 -0.43071,3.0498 -0.147589,0.73373 -0.449014,1.80325 -0.669832,2.37671 -0.220819,0.57345 -0.582069,1.332 -0.802777,1.68567 -0.220708,0.35366 -0.606708,1.01362 -0.857779,1.46658 -0.25107,0.45296 -0.568476,0.92345 -0.705349,1.04555 -0.136871,0.12209 -0.248858,0.26762 -0.248858,0.3234 0,0.0558 -0.188351,0.33922 -0.418557,0.62988 -0.230206,0.29066 -0.986853,1.01392 -1.681437,1.60726 -0.694585,0.59334 -1.4156,1.18283 -1.602258,1.30998 -0.186656,0.12715 -0.472486,0.23118 -0.635178,0.23118 -0.162692,0 -0.373749,-0.0939 -0.469014,-0.2087 z M 75.276115,88.233976 c 0.144616,-0.245353 0.77234,-1.325073 1.394939,-2.399378 0.622602,-1.074307 1.177368,-1.981321 1.232815,-2.015589 0.05545,-0.03427 0.468424,0.251426 0.917726,0.634875 0.449303,0.38345 1.280168,1.048862 1.846366,1.478697 0.566199,0.429833 1.385543,1.017037 1.820768,1.304899 0.435223,0.287861 0.769556,0.545143 0.742963,0.571736 -0.02659,0.02659 -0.382686,0.107775 -0.791316,0.180404 -0.408629,0.07263 -2.114786,0.257691 -3.791459,0.41125 -1.676671,0.153562 -3.180624,0.279201 -3.342116,0.279201 -0.293623,0 -0.293623,0 -0.03069,-0.446095 z m -4.765407,-3.841128 c -3.911916,-3.867467 -3.911916,-3.867467 -3.156985,-3.962984 0.415212,-0.05253 1.866739,-0.09492 3.225615,-0.09419 1.358875,6.86e-4 2.815622,0.04094 3.237212,0.08937 0.738618,0.08484 0.81813,0.136242 2.183584,1.411562 1.417053,1.323512 1.417053,1.323512 -0.06459,3.8776 -0.814906,1.404747 -1.488683,2.552293 -1.497282,2.550101 -0.0086,-0.0022 -1.775999,-1.744348 -3.927552,-3.871457 z m 13.089991,2.691174 C 83.082331,86.734648 82.54908,86.345837 82.415682,86.22 c -0.229329,-0.216335 -0.133822,-0.320355 1.753381,-1.909667 1.097757,-0.924478 2.076039,-1.711613 2.173962,-1.749189 0.09792,-0.03758 0.667775,0.271538 1.266342,0.686921 0.598567,0.415383 1.876569,1.263228 2.840005,1.8841 1.113887,0.717826 1.70393,1.17663 1.6205,1.26006 -0.07216,0.07216 -0.706011,0.242582 -1.408552,0.378712 -1.436254,0.08224 -2.928202,0.507752 -4.228443,0.736312 -0.717184,0.115993 -1.435766,0.211146 -1.596848,0.211449 -0.161082,2.75e-4 -0.716985,-0.285301 -1.235342,-0.634676 z m 7.790157,-2.192948 c -0.734666,-0.494753 -0.734666,-0.494753 1.031284,-2.189131 1.76595,-1.694377 1.76595,-1.694377 2.589511,-1.70139 0.452958,-0.0039 2.12067,0.172992 3.706025,0.392995 1.585354,0.220004 3.237624,0.440623 3.671704,0.490266 0.63584,0.07272 0.78925,0.05201 0.78925,-0.106556 0,-0.129071 -0.27167,-0.253303 -0.78925,-0.360919 -0.43408,-0.09025 -1.6231,-0.315877 -2.642253,-0.501378 -1.019157,-0.185503 -2.594217,-0.426539 -3.500135,-0.535634 -0.905917,-0.109095 -2.357443,-0.260668 -3.225614,-0.336828 -0.868171,-0.07616 -3.060902,-0.229535 -4.872737,-0.340832 -1.811834,-0.111297 -4.097216,-0.237806 -5.078626,-0.281129 -0.981411,-0.04332 -2.263078,-0.115046 -2.848149,-0.159381 -0.585072,-0.04434 -1.063767,-0.127558 -1.063767,-0.184937 0,-0.05738 0.293394,-0.213313 0.651986,-0.346517 0.358592,-0.133206 1.794677,-0.690099 3.191299,-1.237542 1.396623,-0.547443 3.54097,-1.351808 4.765216,-1.787479 2.225901,-0.792129 2.225901,-0.792129 3.980545,0.0028 0.965054,0.43722 2.094363,0.94646 2.509575,1.131644 0.415212,0.185183 1.279951,0.584425 1.921642,0.887205 0.641692,0.302779 2.000567,0.889564 3.019724,1.303965 1.019154,0.414399 2.501564,1.000135 3.294244,1.301634 0.79268,0.301499 2.30597,0.873887 3.36287,1.271972 1.05691,0.398086 2.34748,0.863965 2.86795,1.035288 0.61791,0.203396 0.87989,0.347324 0.75493,0.414744 -0.10525,0.05679 -0.93258,0.1777 -1.83849,0.268691 -0.90592,0.09099 -2.29568,0.282043 -3.08836,0.424557 -0.79268,0.142513 -2.55016,0.54154 -3.90551,0.886726 -1.355352,0.345186 -3.19362,0.750022 -4.08504,0.899634 -0.891419,0.149612 -1.778502,0.331994 -1.971297,0.405295 -0.192794,0.0733 -0.588843,0.133273 -0.880108,0.133273 -0.805127,-0.1675 -1.664167,-0.74262 -2.318419,-1.181036 z M 80.94247,85.151152 c -0.264226,-0.202782 -1.159849,-0.969362 -1.990273,-1.703513 -0.830424,-0.734151 -1.90038,-1.731819 -2.377679,-2.217038 -0.867816,-0.882216 -0.867816,-0.882216 -0.01418,-0.971438 0.4695,-0.04907 1.601222,-0.08608 2.514939,-0.08223 0.913716,0.0038 2.315624,0.05749 3.115352,0.119209 1.454049,0.112221 1.454049,0.112221 2.436368,0.847334 0.540275,0.404313 0.982319,0.780325 0.982319,0.835583 0,0.05526 -0.89973,0.859829 -1.999399,1.787936 -1.09967,0.928107 -2.041618,1.702178 -2.093218,1.72016 -0.0516,0.01798 -0.310003,-0.133218 -0.574229,-0.335998 z m 8.372871,-1.670223 c -0.264226,-0.212207 -1.330352,-0.958282 -2.36917,-1.657943 -1.038817,-0.699662 -1.922643,-1.326938 -1.964057,-1.393948 -0.04147,-0.0671 0.42195,-0.121838 1.031409,-0.121838 0.608688,0 2.202836,0.06711 3.542549,0.149132 1.339714,0.08202 2.738326,0.190115 3.108029,0.240205 0.672185,0.09107 0.672185,0.09107 -0.978612,1.635251 -0.907937,0.849297 -1.704557,1.542106 -1.770266,1.539574 -0.06571,-0.0025 -0.335656,-0.178226 -0.599882,-0.390433 z M 71.679577,78.955985 c -0.347243,-0.07796 -0.424105,-0.175409 -0.504814,-0.64003 -0.05236,-0.301438 -0.139414,-1.150805 -0.193446,-1.887485 -0.09363,-1.276535 -0.08386,-1.351885 0.207989,-1.605008 0.168426,-0.146075 0.964822,-0.540802 1.769768,-0.877171 0.804945,-0.336368 2.000559,-0.783858 2.656919,-0.994422 1.193384,-0.382845 1.193384,-0.382845 4.155831,1.587787 1.629346,1.083846 2.942288,2.031109 2.917649,2.105026 -0.02464,0.07392 -0.875606,0.435649 -1.891037,0.803845 -1.015432,0.368198 -2.340376,0.868592 -2.944321,1.111986 -1.07568,0.433509 -1.145684,0.442995 -3.431504,0.464986 -1.283383,0.01234 -2.517747,-0.01893 -2.743034,-0.06951 z m 8.873223,-4.64938 c -1.871523,-1.247301 -2.733551,-1.896531 -2.615241,-1.969651 0.09706,-0.05999 1.21313,-0.367428 2.480147,-0.683196 1.369052,-0.341199 2.440103,-0.539883 2.63996,-0.489723 0.184959,0.04642 0.417818,0.163225 0.517464,0.259559 0.09964,0.09634 0.58266,0.351568 1.073365,0.567183 0.490705,0.215615 0.978442,0.460607 1.083862,0.544425 0.105419,0.08382 0.948111,0.526136 1.872651,0.982925 1.68098,0.830529 1.68098,0.830529 -1.032084,1.750898 -1.492186,0.506203 -2.829015,0.915372 -2.970732,0.909264 -0.141719,-0.0061 -1.513944,-0.848366 -3.049392,-1.871684 z m -10.914516,-1.10262 c -0.179748,-0.283099 -0.798193,-1.250647 -1.374324,-2.150106 -0.57613,-0.899461 -1.047509,-1.691001 -1.047509,-1.75898 0,-0.06798 0.323255,-0.438457 0.718344,-0.823287 0.718345,-0.699689 0.718345,-0.699689 2.387124,-0.763975 1.639099,-0.06314 1.672587,-0.05847 1.882818,0.262505 0.117722,0.179735 0.589521,1.219432 1.048442,2.310436 0.458922,1.091004 0.808145,2.05207 0.776054,2.135703 -0.03209,0.08363 -0.859495,0.410892 -1.83867,0.727244 -0.979176,0.316352 -1.880477,0.575186 -2.002893,0.575186 -0.122414,0 -0.369637,-0.231627 -0.549386,-0.514726 z m 5.010814,-1.235341 c -0.06948,-0.132113 -0.511071,-1.154512 -0.981321,-2.272 -0.470249,-1.117485 -0.828167,-2.058625 -0.795373,-2.091421 0.03279,-0.03279 0.920027,-0.12166 1.971629,-0.197479 1.051601,-0.07582 2.419407,-0.138394 3.039569,-0.139057 0.986276,-0.0011 1.145903,0.03306 1.273898,0.272218 0.08048,0.150382 0.360607,0.889021 0.622499,1.64142 0.261894,0.752399 0.47617,1.427367 0.47617,1.499929 0,0.07256 -0.293394,0.225734 -0.651986,0.34038 -0.358592,0.114648 -1.501592,0.428447 -2.540001,0.697333 -1.038408,0.268886 -1.978183,0.488882 -2.088388,0.488882 -0.110206,0 -0.257219,-0.108092 -0.326696,-0.240205 z m 5.758183,-2.951094 c -0.310819,-0.849298 -0.564622,-1.617602 -0.564009,-1.707343 5.49e-4,-0.08974 0.263626,-0.198456 0.584472,-0.241591 0.320846,-0.04314 1.386328,-0.171399 2.367738,-0.285028 0.98141,-0.113629 2.353314,-0.288268 3.048674,-0.388088 1.264291,-0.181488 1.264291,-0.181488 0.83463,0.310933 -0.236314,0.270831 -0.799636,0.832138 -1.251827,1.24735 -0.45219,0.415212 -1.128785,1.057173 -1.503545,1.42658 -0.506441,0.499207 -0.891618,0.73708 -1.500242,0.926506 -0.450372,0.140171 -0.961038,0.254858 -1.134812,0.254858 -0.277551,0 -0.384639,-0.187682 -0.881079,-1.544177 z M 64.806006,67.71133 c 0.101053,-0.281863 0.585889,-1.531635 1.077411,-2.777271 0.491523,-1.245636 1.296567,-3.3766 1.788988,-4.735476 0.492419,-1.358876 0.936018,-2.633886 0.985775,-2.833355 0.08252,-0.330819 0.164827,-0.369706 0.937177,-0.442778 0.465689,-0.04406 1.791694,-0.150624 2.946675,-0.236811 1.154983,-0.08619 2.135295,-0.121378 2.178475,-0.0782 0.04318,0.04318 -0.14516,0.765737 -0.41853,1.605685 -0.27337,0.839949 -0.497037,1.616125 -0.497037,1.724836 0,0.108712 -0.602229,0.777837 -1.338287,1.486947 -0.736058,0.709109 -1.665729,1.588015 -2.065936,1.953124 -0.400208,0.36511 -0.973935,0.880021 -1.274949,1.144247 -0.301016,0.264225 -0.745662,0.652529 -0.988103,0.862897 -0.242442,0.210369 -0.778175,0.689064 -1.190518,1.063766 -0.412345,0.374704 -0.792843,0.68128 -0.845552,0.68128 -0.05271,0 -0.407119,0.246057 -0.78758,0.546793 -0.691744,0.546792 -0.691744,0.546792 -0.508009,0.03432 z m 4.606608,-0.766828 c 0,-0.02665 0.947978,-0.999483 2.106617,-2.161848 1.15864,-1.162363 2.131471,-2.180516 2.161848,-2.262562 0.03038,-0.08205 0.380168,-0.435963 0.777314,-0.786481 0.397146,-0.350517 0.891283,-0.724512 1.098082,-0.8311 0.206799,-0.106588 1.041282,-0.385785 1.854405,-0.620438 0.813124,-0.234652 1.569771,-0.426641 1.681438,-0.426641 0.111666,0 0.203029,0.04106 0.203029,0.09124 0,0.05018 -0.807728,1.559626 -1.79495,3.354318 -1.79495,3.263078 -1.79495,3.263078 -2.504998,3.342598 -0.390527,0.04374 -1.605671,0.139628 -2.700321,0.21309 -1.09465,0.07346 -2.191016,0.134179 -2.436368,0.134925 -0.245353,6.87e-4 -0.446096,-0.02045 -0.446096,-0.0471 z m 7.01589,-0.451007 c 0.02916,-0.07218 0.879471,-1.628283 1.889589,-3.458017 1.01012,-1.829734 1.939398,-3.381814 2.065063,-3.449069 0.125665,-0.06725 1.61547,-0.474462 3.310676,-0.904907 1.695207,-0.430445 3.252055,-0.812667 3.459661,-0.84938 0.207606,-0.03671 0.377466,-0.03017 0.377466,0.01454 0,0.04471 -0.794513,1.853914 -1.765584,4.020455 -1.233667,2.752415 -1.845823,3.968847 -2.031925,4.03769 -0.146489,0.05419 -1.158663,0.195781 -2.249278,0.314647 -1.090614,0.118865 -2.686227,0.258679 -3.545806,0.310693 -0.978414,0.05921 -1.543049,0.0455 -1.509862,-0.03665 z m 8.357251,-0.861611 c 0,-0.06915 0.779186,-1.875841 1.731526,-4.01486 0.952339,-2.139019 1.801636,-3.959004 1.887328,-4.044412 0.08569,-0.08541 0.588171,-0.293643 1.116622,-0.46274 0.528452,-0.169099 1.627555,-0.554589 2.442449,-0.856645 0.814896,-0.302055 1.514594,-0.516226 1.554885,-0.475935 0.04029,0.04029 -0.224954,0.575362 -0.589436,1.189045 -0.364481,0.613682 -0.817112,1.385034 -1.005845,1.714112 -0.188732,0.329079 -0.490853,0.86705 -0.671379,1.19549 -0.180526,0.32844 -0.569608,0.961265 -0.864624,1.406276 -0.295017,0.445011 -0.633627,1.000915 -0.752467,1.235342 -0.11884,0.234426 -0.531191,0.90724 -0.916338,1.495143 -0.648778,0.990323 -0.750975,1.083553 -1.389987,1.26803 -0.379346,0.109515 -1.022429,0.261616 -1.429072,0.338004 -0.406643,0.07639 -0.823571,0.138886 -0.926507,0.138886 -0.102935,0 -0.187155,-0.05658 -0.187155,-0.125736 z M 58.044441,56.75313 c 0.04421,-5.367096 0.04421,-5.367096 0.655193,-6.245339 0.336041,-0.483033 1.191439,-1.665773 1.900884,-2.62831 0.709445,-0.962537 1.330734,-1.750067 1.380643,-1.750067 0.04991,0 1.249021,1.159483 2.664694,2.576629 2.573952,2.576629 2.573952,2.576629 1.247385,4.22075 -0.729612,0.904268 -2.015928,2.416211 -2.858481,3.359874 -0.842551,0.943664 -2.263956,2.580492 -3.158675,3.637395 -0.89472,1.056904 -1.682809,1.98341 -1.751307,2.058903 -0.07469,0.08232 -0.106849,-2.011033 -0.08034,-5.229835 z m 6.150642,3.262068 c -1.093746,-0.66706 -1.988629,-1.279792 -1.988629,-1.361627 0,-0.08183 0.779692,-1.033909 1.732648,-2.115723 0.952956,-1.081813 2.250065,-2.608886 2.882464,-3.393496 0.632399,-0.784609 1.27335,-1.595715 1.424336,-1.802458 0.150987,-0.206743 0.676007,-0.892781 1.166712,-1.524531 0.875377,-1.126989 0.892976,-1.140568 0.933863,-0.720492 0.0265,0.272233 -0.63114,2.45362 -1.80595,5.990339 -1.016193,3.059208 -1.917299,5.692388 -2.00246,5.851511 -0.08516,0.159122 -0.199728,0.289313 -0.254595,0.289313 -0.05487,0 -0.994644,-0.545777 -2.088389,-1.212836 z m 13.211091,-1.084715 c 0.390685,-0.359449 0.857004,-0.806893 1.036263,-0.994321 0.179259,-0.187428 0.487017,-0.446453 0.683906,-0.575609 0.196887,-0.129158 0.825201,-0.686128 1.396252,-1.237714 0.57105,-0.551585 1.264258,-1.210433 1.540461,-1.464106 0.502189,-0.461222 0.502189,-0.461222 1.063403,1.263812 0.308668,0.948769 0.561214,1.788255 0.561214,1.865524 0,0.07727 -0.138976,0.17066 -0.308835,0.207532 -0.16986,0.03687 -1.605944,0.377439 -3.191299,0.756814 -1.585356,0.379375 -3.019543,0.721687 -3.187084,0.760692 -0.220895,0.05143 -0.109384,-0.108706 0.405719,-0.582624 z m -2.503153,0.190005 c 0,-0.114828 0.455741,-1.532863 1.012758,-3.151187 0.663225,-1.926892 1.385658,-3.694231 2.093218,-5.120786 0.949238,-1.913815 1.128312,-2.190063 1.474461,-2.27458 0.2167,-0.05291 1.421158,-0.193955 2.676574,-0.313433 1.255415,-0.119478 2.478739,-0.233426 2.718498,-0.253219 0.435925,-0.03599 0.435925,-0.03599 0.227478,0.449988 -0.114647,0.267287 -0.339728,0.844351 -0.500179,1.282363 -0.194261,0.530301 -0.522498,1.034936 -0.982408,1.510362 -0.379874,0.392686 -1.123048,1.106024 -1.6515,1.585195 -0.528452,0.47917 -1.274012,1.158384 -1.6568,1.509363 -0.382789,0.350978 -1.70192,1.595532 -2.931403,2.765675 -1.229485,1.170143 -2.290612,2.148122 -2.358061,2.173285 -0.06745,0.02517 -0.122636,-0.0482 -0.122636,-0.163026 z m 9.42746,-1.564164 c -0.03283,-0.05662 -0.314429,-0.915385 -0.625772,-1.908369 -0.311342,-0.992983 -0.565567,-1.857722 -0.564944,-1.921643 6.86e-4,-0.06392 0.448435,-0.586375 0.995136,-1.161011 0.546702,-0.574636 1.262439,-1.212263 1.590525,-1.416949 0.328086,-0.204685 1.242692,-0.583827 2.032458,-0.842535 0.789766,-0.258708 1.553756,-0.470378 1.697759,-0.470378 0.144001,0 0.320872,0.110339 0.393047,0.245199 0.07217,0.134859 0.541153,1.313507 1.042174,2.619215 0.501022,1.305708 0.891954,2.471364 0.868739,2.590344 -0.02549,0.13064 -0.422794,0.346003 -1.00303,0.543703 -0.528452,0.180055 -2.083796,0.664421 -3.456321,1.076371 -1.372525,0.411949 -2.58878,0.748998 -2.702788,0.748998 -0.114008,0 -0.234151,-0.04633 -0.266983,-0.102945 z M 69.138094,56.108723 c 0,-0.09787 0.408196,-1.441303 0.907103,-2.985409 0.498906,-1.544105 0.994962,-2.977966 1.102345,-3.186359 0.107384,-0.208392 0.529065,-0.600541 0.937069,-0.87144 0.455357,-0.30234 0.811499,-0.452076 0.922243,-0.387746 0.09923,0.05764 0.967945,0.654457 1.930483,1.326264 1.116543,0.779296 1.750067,1.308935 1.750067,1.463089 0,0.132893 -0.208456,0.731193 -0.463235,1.329557 -0.25478,0.598365 -0.630782,1.535747 -0.835562,2.083072 -0.204779,0.547325 -0.413251,0.995951 -0.46327,0.996948 -0.05002,9.61e-4 -1.140986,0.09238 -2.424369,0.203076 -1.283382,0.110695 -2.565049,0.20253 -2.848149,0.204079 -0.331546,0.0018 -0.514725,-0.06051 -0.514725,-0.175131 z m 22.307164,-3.685469 c -0.984177,-2.530101 -1.055888,-2.779801 -0.843018,-2.935455 0.127964,-0.09357 0.740058,-0.299388 1.360209,-0.457375 0.620151,-0.157986 2.282936,-0.649492 3.69508,-1.092234 2.567533,-0.804986 2.567533,-0.804986 1.383814,1.472637 -0.651044,1.252694 -1.451273,2.754177 -1.778286,3.336629 -0.327013,0.582453 -0.594569,1.113342 -0.594569,1.179753 0,0.06641 -0.123288,0.232322 -0.273972,0.36869 -0.150686,0.136368 -0.629381,0.392724 -1.063767,0.569679 -0.434387,0.176955 -0.794299,0.322022 -0.799803,0.322372 -0.0055,4.12e-4 -0.494065,-1.243763 -1.085688,-2.764696 z m -26.351095,-4.49894 c -2.602698,-2.610673 -2.602698,-2.610673 -1.290572,-4.570525 0.721667,-1.077918 1.553163,-2.326819 1.847766,-2.775335 0.294604,-0.448517 0.741383,-1.189722 0.992844,-1.647122 0.251461,-0.457402 0.534405,-0.92429 0.628761,-1.037529 0.09436,-0.11324 0.342636,-0.505432 0.551727,-0.871537 0.209092,-0.366106 0.42733,-0.613174 0.484974,-0.54904 0.05764,0.06413 0.179901,0.42544 0.271684,0.802906 0.09178,0.377465 0.349345,1.581923 0.572361,2.676573 0.223017,1.09465 0.557805,2.853452 0.743975,3.908447 0.18617,1.054997 0.338492,2.329559 0.338492,2.832363 0,0.823669 -0.152446,0.822396 -0.34315,1.139029 -0.141234,0.234495 -0.224402,0.357598 -0.295652,0.466197 -0.04654,0.07095 -0.257153,0.320622 -0.513397,0.63037 -0.256245,0.309747 -0.673173,0.797785 -0.926506,1.084527 -0.460608,0.52135 -0.460608,0.52135 -3.063307,-2.089324 z m 10.187153,1.442074 c -0.886588,-0.621863 -1.644591,-1.163272 -1.68445,-1.203132 -0.03986,-0.03986 0.309125,-0.313037 0.77552,-0.607061 0.466396,-0.294025 1.117482,-0.689008 1.446858,-0.87774 0.329378,-0.188733 1.471541,-0.853914 2.538141,-1.478179 1.066601,-0.624265 1.968594,-1.105709 2.004429,-1.069874 0.03583,0.03583 -0.355478,0.886316 -0.869582,1.889959 -0.514104,1.003643 -1.23781,2.427034 -1.608234,3.163092 -0.370424,0.736058 -0.744869,1.33273 -0.832101,1.32594 -0.08723,-0.0068 -0.883993,-0.521142 -1.770581,-1.143005 z m 10.053825,0.78094 c 1.38e-4,-0.0583 0.304308,-0.847204 0.675815,-1.753121 0.371507,-0.905917 1.210582,-2.851581 1.864612,-4.323696 0.654028,-1.472116 1.396414,-3.17071 1.649744,-3.774655 0.460599,-1.098082 0.460599,-1.098082 1.875382,-1.809703 0.778129,-0.391392 1.52092,-0.715669 1.650645,-0.720616 0.160171,-0.0061 0.567624,0.549361 1.269657,1.730888 0.568585,0.956934 1.033793,1.789792 1.033793,1.850792 0,0.061 -0.416928,0.504556 -0.926506,0.985676 -0.509579,0.48112 -1.791395,1.671136 -2.84848,2.644478 -1.057086,0.973342 -2.23066,2.013249 -2.607943,2.310903 -0.377285,0.297654 -0.933039,0.767963 -1.235011,1.045129 -0.301973,0.277168 -0.965969,0.822537 -1.475547,1.211934 -0.509579,0.389394 -0.92635,0.660291 -0.926161,0.601991 z M 58.043265,44.585237 c 0.04538,-5.387463 0.04538,-5.387463 0.868945,-6.61258 0.452958,-0.673814 0.954349,-1.416102 1.114201,-1.64953 0.159852,-0.233426 0.390415,-0.507217 0.512362,-0.608425 0.194022,-0.161024 0.504957,0.06003 2.488879,1.769405 1.246936,1.074379 2.267157,1.990768 2.267157,2.036421 0,0.04565 -0.355161,0.626779 -0.789247,1.291395 -0.434085,0.664615 -1.283923,1.901313 -1.88853,2.748215 -0.604605,0.846903 -1.407577,1.98547 -1.784382,2.530147 -0.376804,0.544677 -0.855228,1.224115 -1.063167,1.509862 -0.207936,0.285747 -0.660491,0.936467 -1.005676,1.446046 -0.345186,0.509578 -0.658731,0.926506 -0.696768,0.926506 -0.03804,0 -0.04874,-2.424358 -0.02377,-5.387462 z m 30.517145,4.198046 c 0.301972,-0.272627 0.765225,-0.689109 1.029451,-0.925514 0.264226,-0.236406 1.148598,-1.01539 1.965271,-1.731077 0.816673,-0.715687 1.538327,-1.320469 1.603674,-1.343959 0.06535,-0.02349 0.308225,0.548594 0.539728,1.271297 0.231503,0.722706 0.420913,1.371298 0.420913,1.44132 0,0.07002 -0.509578,0.279631 -1.132396,0.465797 -0.622818,0.186167 -1.92513,0.560507 -2.894025,0.831868 -0.968897,0.271361 -1.833636,0.491711 -1.921643,0.489669 -0.08801,-0.002 0.08705,-0.226773 0.389027,-0.499401 z m -8.853282,-1.194986 c 0,-0.103531 0.30252,-0.736643 0.672266,-1.406917 0.369746,-0.670273 0.849457,-1.58928 1.066024,-2.042239 0.376918,-0.78834 0.446491,-0.85171 1.626842,-1.481777 0.678196,-0.36202 2.128707,-1.125735 3.223357,-1.697148 1.09465,-0.571412 2.065405,-1.099468 2.157233,-1.173458 0.09183,-0.07399 0.224676,-0.113245 0.295217,-0.08723 0.07054,0.02601 -0.301288,1.035564 -0.826286,2.243454 -0.524997,1.20789 -1.208937,2.78295 -1.519868,3.500135 -0.31093,0.717184 -0.672374,1.419933 -0.803207,1.561665 -0.188537,0.204239 -0.674782,0.309916 -2.344113,0.509454 -1.158428,0.138468 -2.43051,0.254133 -2.826849,0.257033 -0.521571,0.0038 -0.720616,-0.04672 -0.720616,-0.182968 z M 94.73188,47.19318 c -0.03589,-0.09437 -0.274155,-0.808646 -0.529479,-1.587289 -0.464228,-1.415712 -0.464228,-1.415712 0.85377,-2.676574 0.724899,-0.693472 1.783517,-1.715951 2.352485,-2.272174 0.568968,-0.556224 1.178734,-1.107244 1.355037,-1.224489 0.24515,-0.163031 0.344855,-0.173845 0.423882,-0.04598 0.05683,0.09196 0.364783,0.870839 0.684332,1.730849 0.580993,1.563651 0.580993,1.563651 -0.194026,3.067674 -0.426263,0.827212 -0.91763,1.637995 -1.091925,1.801738 -0.174297,0.163743 -1.006837,0.540738 -1.850089,0.837766 -0.843253,0.297028 -1.624435,0.540051 -1.73596,0.540051 -0.111527,0 -0.232138,-0.07721 -0.268027,-0.171575 z m 5.4363,-7.025395 c -0.581547,-1.569301 -0.581547,-1.569301 1.70767,-3.868054 1.25907,-1.264313 2.34695,-2.450589 2.41751,-2.636169 0.0705,-0.18558 0.0959,-0.369779 0.0564,-0.409331 -0.0395,-0.03955 -0.28012,0.07711 -0.53459,0.259242 -0.25447,0.182135 -1.72169,1.54347 -3.26049,3.025189 -1.538793,1.481719 -3.163999,3.041338 -3.611567,3.465819 -0.447567,0.424483 -0.892492,0.771786 -0.988721,0.771786 -0.09623,0 -0.616052,-0.737667 -1.15516,-1.639259 -0.539108,-0.901592 -0.93793,-1.707647 -0.886272,-1.79123 0.05166,-0.08358 0.597952,-0.392298 1.213987,-0.686031 0.616034,-0.293731 2.170104,-1.080441 3.453486,-1.748243 1.283383,-0.667802 2.642257,-1.392063 3.019727,-1.609469 0.37746,-0.217407 1.28718,-0.755606 2.02158,-1.196003 0.7344,-0.440395 1.376,-0.800718 1.42576,-0.800718 0.0498,0 0.88657,-0.502842 1.85955,-1.117426 0.97299,-0.614584 1.80757,-1.078927 1.85462,-1.031872 0.0471,0.04705 -0.1751,0.410919 -0.49369,0.80859 -0.31859,0.39767 -0.79033,1.043225 -1.04831,1.434566 -0.25799,0.391343 -0.52761,0.747714 -0.59917,0.791939 -0.0716,0.04422 -0.40054,0.496125 -0.73107,1.004222 -0.33053,0.508099 -0.86841,1.356184 -1.19528,1.884636 -0.32687,0.528452 -0.7053,1.123263 -0.84094,1.321804 -0.13565,0.19854 -0.53715,0.877978 -0.89222,1.509862 -0.35508,0.631883 -0.98036,1.751108 -1.3895,2.487166 -0.40915,0.736058 -0.76141,1.338287 -0.78282,1.338287 -0.0214,0 -0.30061,-0.706186 -0.62046,-1.569303 z m -36.6724,-3.382788 c -1.23758,-1.071361 -2.273215,-1.967818 -2.30141,-1.992124 -0.02819,-0.02431 0.656016,-0.988812 1.520467,-2.143343 0.864451,-1.154531 1.890243,-2.573584 2.279539,-3.153452 0.389295,-0.579868 0.770304,-1.092929 0.846688,-1.140137 0.07638,-0.04721 0.199347,0.05663 0.273254,0.230744 0.07391,0.174117 0.297025,0.903363 0.495821,1.620547 0.198793,0.717185 0.570957,2.00244 0.827028,2.856121 0.256072,0.853683 0.465585,1.72958 0.465585,1.94644 0,0.21686 -0.127545,0.599317 -0.283434,0.849904 -0.155889,0.250588 -0.596783,0.94975 -0.979763,1.553695 -0.382981,0.603945 -0.740721,1.147908 -0.794977,1.208809 -0.05426,0.0609 -1.111216,-0.765842 -2.348798,-1.837204 z m -5.443857,-4.52218 c 0.03673,-5.287833 0.03673,-5.287833 0.467237,-5.970818 0.236781,-0.37564 0.595975,-0.950657 0.798212,-1.277814 0.367699,-0.594829 0.367699,-0.594829 2.589213,1.699999 1.221831,1.262157 2.239422,2.340205 2.261311,2.395665 0.02189,0.05546 -0.811966,1.238841 -1.853013,2.629737 -1.041046,1.390894 -2.243611,3.051202 -2.672368,3.689571 -0.428755,0.638371 -0.970302,1.376859 -1.203437,1.641085 -0.42388,0.48041 -0.42388,0.48041 -0.387155,-4.807425 z m 4.379443,-6.222971 c -1.233457,-1.235161 -2.221029,-2.331527 -2.194602,-2.436369 0.02643,-0.104843 0.407786,-0.808295 0.847465,-1.563226 0.43968,-0.754931 1.004887,-1.703104 1.256017,-2.107049 0.423022,-0.680439 0.463523,-0.71072 0.550747,-0.411781 0.05178,0.177467 0.46766,1.341824 0.924175,2.58746 0.456517,1.245636 1.037959,2.804842 1.292095,3.464903 0.254136,0.660061 0.462066,1.294401 0.462066,1.409644 0,0.115245 -0.155193,0.455376 -0.344872,0.755848 -0.18968,0.300472 -0.391125,0.546314 -0.447656,0.546314 -0.05653,0 -1.111976,-1.010585 -2.345435,-2.245744 z"
       id="path1276"
       sodipodi:nodetypes="ssscssssssssssssccssssssssssssssssssssssssssssssssssssssssssssscsssssssssssssssssssssssssccscsssssssssssssssssssccssssssccssssssssssssccssssssssssssssccsssssssssssssssssssssssssssssssscssssssssssssscccsscscsssssssssssssssssssssssssssccsssscsssssssssssssscsssssssssssssssssssssssssssssssssssssssscsssssssscsssssssssssssssssssssssssssssssssssssscsssssssssssssssssssssssssssssssssssssssssssssssssssssssssssssssssssssssssssssscsssssssssssssssssssscsssssssssssscssssssssssssssssssssssssssscsssssssssssscsssssssssssssssssssssscsssssssssssssssssssssssssssscscssssssssssssscsscssssssccsssssssssssssssssssssssssssssssss" /></g></svg>
